<?xml version="1.0" encoding="UTF-8"?>
<svg version="1.1" xmlns="http://www.w3.org/2000/svg" width="500" height="500">
<path d="M0 0 C1.34197814 1.02501569 2.65668722 2.08700869 3.9375 3.1875 C4.57042969 3.71214844 5.20335937 4.23679688 5.85546875 4.77734375 C15.64242598 13.64612162 19.23965913 27.36467405 19.9375 40.1875 C20.70704027 55.86688304 18.08643196 71.75446967 7.9375 84.1875 C-0.98712744 93.91632464 -12.47068137 97.43633348 -25.3046875 98.44140625 C-37.36194994 98.86518758 -50.36870329 96.82353423 -60.0625 89.1875 C-60.92875 88.61 -61.795 88.0325 -62.6875 87.4375 C-72.51122789 78.13081042 -76.91682094 64.88594885 -77.36328125 51.63671875 C-77.38255028 49.71623853 -77.38609956 47.79554482 -77.375 45.875 C-77.36762817 44.36160034 -77.36762817 44.36160034 -77.36010742 42.81762695 C-77.13786114 28.64287284 -73.99818459 15.64091206 -64.0703125 5.00390625 C-47.90637621 -9.61911004 -18.45971114 -11.6901057 0 0 Z M-47.4375 19.375 C-54.6003973 31.77232224 -56.00890644 45.7885364 -52.875 59.6875 C-50.50618906 67.76997067 -47.36883808 72.98874805 -40.02734375 77.27734375 C-33.62081032 80.2449825 -25.51118503 80.22850559 -18.8125 78.1875 C-12.92097751 75.62281259 -8.79293635 70.25209861 -6.1875 64.5 C-2.22213279 52.82419653 -1.90801207 36.63811816 -6.89453125 25.30859375 C-7.27996094 24.60863281 -7.66539063 23.90867188 -8.0625 23.1875 C-8.74892578 21.89779297 -8.74892578 21.89779297 -9.44921875 20.58203125 C-11.1408277 18.07124122 -12.47198061 16.94863631 -15.0625 15.4375 C-15.743125 15.03015625 -16.42375 14.6228125 -17.125 14.203125 C-27.26095544 8.88992255 -39.36029687 11.9354708 -47.4375 19.375 Z " fill="#FEFEFE" transform="translate(135.0625,204.8125)"/>
<path d="M0 0 C8.43944058 6.08355434 13.45455119 14.15078467 15.3125 24.375 C16.5787813 37.32598208 16.16333713 50.74352133 8.5625 61.8125 C1.96725969 69.66713293 -6.45888757 74.37219486 -16.6875 75.375 C-27.42681512 76.09329024 -37.8251701 74.69566201 -46.65625 68.15234375 C-54.67823271 61.13310888 -58.9647814 52.67603676 -59.89453125 41.99707031 C-60.662263 27.66790552 -59.58515902 15.39617536 -49.8203125 4.2421875 C-36.84677358 -8.63630718 -15.24606613 -9.2245106 0 0 Z M-33.6875 16.375 C-38.95927329 24.63411148 -38.85905185 35.75158086 -37.19140625 45.1796875 C-35.74482706 50.0343092 -33.71853662 53.1501707 -29.6875 56.375 C-24.73412639 58.02612454 -19.7235638 58.23467138 -14.875 56.1875 C-9.83051767 52.00778607 -7.53254129 47.86408249 -6.6875 41.375 C-6.00748924 32.04572961 -6.05673024 22.82269296 -12.1875 15.3125 C-18.98864858 10.04160985 -27.21747133 11.45777821 -33.6875 16.375 Z " fill="#FEFEFE" transform="translate(335.6875,227.625)"/>
<path d="M0 0 C6.21891214 4.73321008 8.75388274 11.24271042 10.03515625 18.78125 C10.11899071 20.68252952 10.15297763 22.58637989 10.14868164 24.48950195 C10.14856834 26.17067863 10.14856834 26.17067863 10.14845276 27.88581848 C10.14329147 29.0849437 10.13813019 30.28406891 10.1328125 31.51953125 C10.13139755 32.75543503 10.1299826 33.99133881 10.12852478 35.26469421 C10.12388243 38.53783345 10.11490936 41.81092287 10.1038208 45.08404541 C10.09356029 48.42907248 10.08910256 51.77410173 10.08398438 55.11914062 C10.07296532 61.67319901 10.05570578 68.22721484 10.03515625 74.78125 C2.77515625 74.78125 -4.48484375 74.78125 -11.96484375 74.78125 C-11.990625 71.1925 -12.01640625 67.60375 -12.04296875 63.90625 C-12.08142702 60.41447242 -12.12657529 56.9228406 -12.17236328 53.43115234 C-12.20051606 51.01227832 -12.22175877 48.59331327 -12.23583984 46.17431641 C-12.25734742 42.68865551 -12.30404068 39.20408248 -12.35546875 35.71875 C-12.35669739 34.64447754 -12.35792603 33.57020508 -12.35919189 32.46337891 C-12.48745921 25.82544708 -13.40694674 21.43525948 -16.96484375 15.78125 C-21.5151032 13.50612028 -27.6281633 14.51868777 -32.46484375 15.46875 C-35.10314843 16.56784439 -35.10314843 16.56784439 -36.21484375 18.96875 C-36.46234375 19.896875 -36.70984375 20.825 -36.96484375 21.78125 C-37.47023682 23.26830444 -37.47023682 23.26830444 -37.98583984 24.78540039 C-39.37034491 29.64479296 -39.31911092 34.50576079 -39.37890625 39.52734375 C-39.3982724 40.53845718 -39.41763855 41.54957062 -39.43759155 42.59132385 C-39.49706365 45.80038182 -39.54364291 49.00947628 -39.58984375 52.21875 C-39.62805332 54.40300988 -39.66710677 56.58725517 -39.70703125 58.77148438 C-39.80431666 64.10799424 -39.88414268 69.44436081 -39.96484375 74.78125 C-47.22484375 74.78125 -54.48484375 74.78125 -61.96484375 74.78125 C-61.96484375 49.04125 -61.96484375 23.30125 -61.96484375 -3.21875 C-56.35484375 -3.21875 -50.74484375 -3.21875 -44.96484375 -3.21875 C-42.96484375 2.78125 -42.96484375 2.78125 -42.96484375 6.78125 C-42.30484375 6.78125 -41.64484375 6.78125 -40.96484375 6.78125 C-40.58392578 5.87246094 -40.58392578 5.87246094 -40.1953125 4.9453125 C-37.62170856 0.41903763 -32.43652823 -1.61276227 -27.77734375 -3.53125 C-18.1635805 -5.26487944 -8.48070347 -5.26039659 0 0 Z " fill="#FEFEFE" transform="translate(429.96484375,226.21875)"/>
<path d="M0 0 C0.97324219 -0.00257813 1.94648438 -0.00515625 2.94921875 -0.0078125 C5.3125 0.125 5.3125 0.125 6.3125 1.125 C6.32912231 2.6163391 6.275692 4.10860805 6.19140625 5.59765625 C6.14306641 6.49677734 6.09472656 7.39589844 6.04492188 8.32226562 C5.98884766 9.26779297 5.93277344 10.21332031 5.875 11.1875 C5.82279297 12.13689453 5.77058594 13.08628906 5.71679688 14.06445312 C5.58668642 16.41826952 5.45170888 18.77170699 5.3125 21.125 C4.29929688 21.16238281 3.28609375 21.19976562 2.2421875 21.23828125 C0.89059061 21.30398388 -0.46097029 21.37042971 -1.8125 21.4375 C-2.47765625 21.46005859 -3.1428125 21.48261719 -3.828125 21.50585938 C-9.51909631 21.81272548 -13.51985109 23.37883838 -17.9375 26.9375 C-22.28712014 32.37452517 -22.01930487 38.70275957 -22.1015625 45.3359375 C-22.12092865 46.30407379 -22.1402948 47.27221008 -22.1602478 48.26968384 C-22.2197833 51.3463677 -22.2663247 54.42308951 -22.3125 57.5 C-22.35070373 59.59246377 -22.38975685 61.68491222 -22.4296875 63.77734375 C-22.5270541 68.89314713 -22.60682958 74.00879734 -22.6875 79.125 C-29.9475 79.125 -37.2075 79.125 -44.6875 79.125 C-44.6875 53.385 -44.6875 27.645 -44.6875 1.125 C-39.0775 1.125 -33.4675 1.125 -27.6875 1.125 C-26.6975 4.755 -25.7075 8.385 -24.6875 12.125 C-23.6975 11.238125 -22.7075 10.35125 -21.6875 9.4375 C-14.82589038 3.56407351 -9.16330372 -0.0244681 0 0 Z " fill="#FEFEFE" transform="translate(217.6875,221.875)"/>
<path d="M0 0 C7.26 0 14.52 0 22 0 C22 25.74 22 51.48 22 78 C14.74 78 7.48 78 0 78 C0 52.26 0 26.52 0 0 Z " fill="#FEFEFE" transform="translate(237,223)"/>
<path d="M0 0 C2.52623682 1.9100815 3.60686774 3.21373547 5 6 C5.48938638 10.89386383 5.50403781 13.07593068 3.125 17.4375 C0.05165527 20.66012148 -3.32491277 20.93030841 -7.62890625 21.109375 C-11.34649955 20.93788799 -13.72847709 20.05381799 -16.57421875 17.6953125 C-19.14970685 14.63295131 -19.12969407 10.88399611 -19 7 C-17.64913319 3.97663142 -16.32414606 2.32414606 -14 0 C-9.41524132 -1.61059411 -4.67178665 -1.02608293 0 0 Z " fill="#FDFDFD" transform="translate(255,194)"/>
</svg>
