<!DOCTYPE svg PUBLIC "-//W3C//DTD SVG 1.1//EN" "http://www.w3.org/Graphics/SVG/1.1/DTD/svg11.dtd">
<!-- Uploaded to: SVG Repo, www.svgrepo.com, Transformed by: SVG Repo Mixer Tools -->
<svg width="800px" height="800px" viewBox="0 0 20 20" version="1.1" xmlns="http://www.w3.org/2000/svg" xmlns:xlink="http://www.w3.org/1999/xlink" fill="#000000">
<g id="SVGRepo_bgCarrier" stroke-width="0"/>
<g id="SVGRepo_tracerCarrier" stroke-linecap="round" stroke-linejoin="round"/>
<g id="SVGRepo_iconCarrier" _msttexthash="1367262" _msthash="1183" _mstTextHash="1367262" _mstHash="1224">  <title _istranslated="1" _isTranslated="1">emoji_happy_missing [#581]</title> <desc _istranslated="1" _isTranslated="1">Criado com Sketch.</desc>  <defs _istranslated="1" _isTranslated="1">  </defs>  <g id="Page-1" stroke="none" stroke-width="1" fill="none" fill-rule="evenodd" _istranslated="1" _isTranslated="1">  <g id="Dribbble-Light-Preview" transform="translate(-340.000000, -5639.000000)" fill="#3d3682" _istranslated="1" _isTranslated="1">  <g id="icons" transform="translate(56.000000, 160.000000)" _istranslated="1" _isTranslated="1">  <path d="M302,5493 L304,5493 L304,5485 L302,5485 L302,5493 Z M302,5497 L300,5497 L300,5499 L304,5499 L304,5495 L302,5495 L302,5497 Z M300,5479 L300,5481 L302,5481 L302,5483 L304,5483 L304,5479 L300,5479 Z M284,5493 L286,5493 L286,5485 L284,5485 L284,5493 Z M286,5495 L284,5495 L284,5499 L288,5499 L288,5497 L286,5497 L286,5495 Z M286,5481 L288,5481 L288,5479 L284,5479 L284,5483 L286,5483 L286,5481 Z M290,5499 L298,5499 L298,5497 L290,5497 L290,5499 Z M290,5481 L298,5481 L298,5479 L290,5479 L290,5481 Z M296,5488 L300,5488 L300,5484 L296,5484 L296,5488 Z M288,5488 L292,5488 L292,5484 L288,5484 L288,5488 Z M297.167,5489 L299.167,5489 C299.167,5496 289.167,5496 289.167,5489 L291.167,5489 C291.167,5493 297.167,5493 297.167,5489 L297.167,5489 Z" id="emoji_happy_missing-[#581]" _istranslated="1" _isTranslated="1">  </path>  </g>  </g>  </g>  </g>
</svg>