<?xml version="1.0" encoding="UTF-8"?>
<svg version="1.1" xmlns="http://www.w3.org/2000/svg" width="165" height="50">
<path d="M0 0 C5.80848711 3.14811134 8.61139554 8.06549834 10.609375 14.234375 C11.65320962 19.83228454 10.7238204 24.42732964 7.953125 29.375 C4.98289181 33.48497383 1.42755657 36.62831448 -3.390625 38.234375 C-10.22514644 38.97488265 -15.75052136 38.33285031 -21.390625 34.234375 C-26.19705624 29.6551134 -27.56599456 25.59628906 -27.765625 19.046875 C-27.71674532 12.77631013 -26.59747104 8.88827007 -22.390625 4.234375 C-16.17647814 -1.53590422 -8.09177668 -2.59148404 0 0 Z M-15.390625 10.109375 C-18.19095193 14.48488583 -18.31370685 18.1698989 -17.390625 23.234375 C-15.59415646 26.16860695 -14.4465179 27.70642855 -11.390625 29.234375 C-7.47572922 29.7563611 -5.86948764 29.56425815 -2.578125 27.296875 C0.25352885 23.3325596 0.93431131 20.0732914 0.609375 15.234375 C-0.74149181 12.21100642 -2.06647894 10.55852106 -4.390625 8.234375 C-9.1529143 7.68788279 -11.30131373 7.55355546 -15.390625 10.109375 Z " fill="#F8F8F8" transform="translate(43.390625,4.765625)"/>
<path d="M0 0 C2.74847549 1.82655499 4.50359698 3.59262217 6.30078125 6.36328125 C7.00193699 10.13199333 6.9610038 13.37674317 5.80078125 17.05078125 C2.74044646 20.8555218 -0.40751568 23.60699851 -5.3125 24.38671875 C-11.15439277 24.49048239 -14.47208144 23.54886286 -19.19921875 20.05078125 C-21.64356281 17.13333834 -22.15484465 15.3994349 -22.63671875 11.61328125 C-22.00422494 6.46297455 -19.92714596 3.62162416 -16.13671875 0.17578125 C-10.95702673 -1.80793059 -5.17689011 -2.23443037 0 0 Z M-9.19921875 6.05078125 C-12.24366511 7.68831807 -12.24366511 7.68831807 -13.01171875 9.92578125 C-13.24320601 12.54930349 -12.54693571 13.83101214 -11.19921875 16.05078125 C-8.28269701 16.21759234 -8.28269701 16.21759234 -5.19921875 16.05078125 C-2.84948057 14.15322981 -2.84948057 14.15322981 -3.07421875 10.92578125 C-3.11546875 9.97703125 -3.15671875 9.02828125 -3.19921875 8.05078125 C-6.03637025 6.85482588 -6.03637025 6.85482588 -9.19921875 6.05078125 Z " fill="#FBFBFB" transform="translate(113.19921875,18.94921875)"/>
<path d="M0 0 C2.64 0 5.28 0 8 0 C8 0.66 8 1.32 8 2 C8.99 1.34 9.98 0.68 11 0 C16.35536444 -0.43188423 19.6277173 -0.44482879 24 3 C25.17426264 5.34852528 25.11508173 6.73774065 25.09765625 9.3515625 C25.09443359 10.20234375 25.09121094 11.053125 25.08789062 11.9296875 C25.07951172 12.81914062 25.07113281 13.70859375 25.0625 14.625 C25.05798828 15.5221875 25.05347656 16.419375 25.04882812 17.34375 C25.03702591 19.56256648 25.02056155 21.78125018 25 24 C22.36 24 19.72 24 17 24 C16.93941406 23.09636719 16.87882812 22.19273438 16.81640625 21.26171875 C16.73261719 20.08222656 16.64882812 18.90273438 16.5625 17.6875 C16.48128906 16.51574219 16.40007812 15.34398437 16.31640625 14.13671875 C16.1132629 10.97409042 16.1132629 10.97409042 15 8 C13.02 8 11.04 8 9 8 C9 13.28 9 18.56 9 24 C6.03 24 3.06 24 0 24 C0 16.08 0 8.16 0 0 Z " fill="#FBFBFB" transform="translate(123,18)"/>
<path d="M0 0 C2.64 0 5.28 0 8 0 C8 0.66 8 1.32 8 2 C8.515625 1.67 9.03125 1.34 9.5625 1 C12.8358849 -0.34292714 15.49639145 -0.25952656 19 0 C19.66 0.66 20.32 1.32 21 2 C20 4.9375 20 4.9375 18 8 C15.24121075 8.86518243 12.93007574 8.90393194 10 9 C9.44365776 12.47713898 9 15.78680241 9 19.3125 C9 22 9 22 8 24 C5.36 24 2.72 24 0 24 C0 16.08 0 8.16 0 0 Z " fill="#FBFBFB" transform="translate(57,18)"/>
<path d="M0 0 C3.0625 0.125 3.0625 0.125 5.0625 1.125 C5.0625 8.715 5.0625 16.305 5.0625 24.125 C2.0925 24.125 -0.8775 24.125 -3.9375 24.125 C-3.96637236 20.31251574 -3.98425492 16.5000593 -4 12.6875 C-4.00837891 11.59888672 -4.01675781 10.51027344 -4.02539062 9.38867188 C-4.02861328 8.35419922 -4.03183594 7.31972656 -4.03515625 6.25390625 C-4.04039307 5.29556885 -4.04562988 4.33723145 -4.05102539 3.34985352 C-3.87674823 -0.06560398 -3.4766228 0.1479414 0 0 Z " fill="#FDFDFD" transform="translate(82.9375,17.875)"/>
<path d="M0 0 C2.4375 0.75 2.4375 0.75 4.4375 2.75 C3.86931818 8.31818182 3.86931818 8.31818182 2.4375 9.75 C-0.5 9.9375 -0.5 9.9375 -3.5625 9.75 C-5.5625 7.75 -5.5625 7.75 -5.875 4.75 C-5.771875 3.76 -5.66875 2.77 -5.5625 1.75 C-2.5625 -0.25 -2.5625 -0.25 0 0 Z " fill="#F9F9F9" transform="translate(84.5625,4.25)"/>
</svg>
