<?xml version="1.0" encoding="UTF-8"?>
<svg version="1.1" xmlns="http://www.w3.org/2000/svg" width="165" height="50">
<path d="M0 0 C5.35704182 3.8620534 9.31327098 8.3412007 10.6875 14.9375 C11.19950121 20.46711309 10.4656927 25.13171402 7.6875 29.9375 C3.81171485 34.27263746 -0.47687278 37.46451321 -6.33984375 38.1875 C-12.15998353 38.50586662 -16.528726 37.28939607 -21.3125 33.9375 C-25.96385096 29.0413411 -27.86243853 24.68842204 -28.3125 17.9375 C-27.5600474 11.76261117 -25.37543306 6.68183009 -20.66015625 2.45703125 C-14.25956187 -2.21579532 -7.42036153 -2.38011596 0 0 Z M-15.3125 9.75 C-18.24018425 14.41599678 -18.30156712 18.57402221 -17.3125 23.9375 C-15.47598401 27.27571811 -15.47598401 27.27571811 -12.3125 28.9375 C-8.04544881 29.62327608 -6.10597009 29.43773114 -2.4375 27.125 C0.32925747 24.27686731 0.64602488 22.49741414 0.9375 18.5625 C0.6055558 13.74930912 -0.95649719 11.29350281 -4.3125 7.9375 C-9.03659784 7.39539041 -11.22246287 7.2789359 -15.3125 9.75 Z " fill="#2F3949" transform="translate(43.3125,5.0625)"/>
<path d="M0 0 C3.06175889 1.56996573 4.94593558 3.29577862 6.9609375 6.06640625 C8.21843936 10.15328729 8.34384271 13.25150304 6.9609375 17.31640625 C3.90069274 21.12103487 0.74396069 23.926783 -4.1875 24.6171875 C-10.12977295 24.64846262 -14.34109268 23.82830918 -18.8515625 19.62890625 C-20.56802882 16.28631395 -21.16090124 13.03607125 -21.0390625 9.31640625 C-19.53120621 5.1102808 -17.89319236 2.60479585 -14.0390625 0.31640625 C-9.41505635 -1.22492913 -4.68218756 -1.5696989 0 0 Z M-8.0390625 6.31640625 C-11.08350886 7.95394307 -11.08350886 7.95394307 -11.8515625 10.19140625 C-12.08304976 12.81492849 -11.38677946 14.09663714 -10.0390625 16.31640625 C-7.12254076 16.48321734 -7.12254076 16.48321734 -4.0390625 16.31640625 C-1.68932432 14.41885481 -1.68932432 14.41885481 -1.9140625 11.19140625 C-1.9553125 10.24265625 -1.9965625 9.29390625 -2.0390625 8.31640625 C-4.876214 7.12045088 -4.876214 7.12045088 -8.0390625 6.31640625 Z " fill="#2F3B4B" transform="translate(112.0390625,18.68359375)"/>
<path d="M0 0 C4.6 2.2 4.6 2.2 6 5 C6.08342159 6.44848582 6.10732861 7.90070869 6.09765625 9.3515625 C6.09443359 10.20234375 6.09121094 11.053125 6.08789062 11.9296875 C6.07951172 12.81914062 6.07113281 13.70859375 6.0625 14.625 C6.05798828 15.5221875 6.05347656 16.419375 6.04882812 17.34375 C6.03702591 19.56256648 6.02056155 21.78125018 6 24 C3.36 24 0.72 24 -2 24 C-2.06058594 23.01257813 -2.12117188 22.02515625 -2.18359375 21.0078125 C-2.30927734 19.08582031 -2.30927734 19.08582031 -2.4375 17.125 C-2.55931641 15.21074219 -2.55931641 15.21074219 -2.68359375 13.2578125 C-2.79206027 10.11699848 -2.79206027 10.11699848 -4 8 C-5.65 8.33 -7.3 8.66 -9 9 C-9.33 13.95 -9.66 18.9 -10 24 C-12.97 24 -15.94 24 -19 24 C-19 16.41 -19 8.82 -19 1 C-15.7 1 -12.4 1 -9 1 C-5.93570224 -0.53214888 -3.3834358 -0.22938548 0 0 Z " fill="#303A4C" transform="translate(142,18)"/>
<path d="M0 0 C0.33 0.66 0.66 1.32 1 2 C1.99 1.34 2.98 0.68 4 0 C7.5625 -0.25 7.5625 -0.25 11 0 C11.66 0.66 12.32 1.32 13 2 C12 4.9375 12 4.9375 10 8 C7.3106304 8.76144802 4.81254822 8.81854528 2 9 C0.58365167 11.83269666 0.6536995 14.47466438 0.4375 17.625 C0.35371094 18.81351563 0.26992187 20.00203125 0.18359375 21.2265625 C0.12300781 22.14179687 0.06242187 23.05703125 0 24 C-2.64 24 -5.28 24 -8 24 C-8 16.41 -8 8.82 -8 1 C-2 0 -2 0 0 0 Z " fill="#192337" transform="translate(65,18)"/>
<path d="M0 0 C2.64 0 5.28 0 8 0 C8 7.92 8 15.84 8 24 C5.03 24 2.06 24 -1 24 C-1.02887236 20.18751574 -1.04675492 16.3750593 -1.0625 12.5625 C-1.07087891 11.47388672 -1.07925781 10.38527344 -1.08789062 9.26367188 C-1.09111328 8.22919922 -1.09433594 7.19472656 -1.09765625 6.12890625 C-1.10289307 5.17056885 -1.10812988 4.21223145 -1.11352539 3.22485352 C-1 1 -1 1 0 0 Z " fill="#273142" transform="translate(80,18)"/>
<path d="M0 0 C0.33 0 0.66 0 1 0 C1.03867187 1.01320313 1.03867187 1.01320313 1.078125 2.046875 C1.38777326 7.59160775 1.38777326 7.59160775 3.625 12.5625 C6.71399937 14.43215751 9.4316664 14.7255128 13 15 C13 15.33 13 15.66 13 16 C9.7 16.66 6.4 17.32 3 18 C3 18.66 3 19.32 3 20 C3.99 20.33 4.98 20.66 6 21 C5.67 21.66 5.34 22.32 5 23 C0.24496557 22.58043814 -2.8187354 20.41826425 -6 17 C-7.9375 13.875 -7.9375 13.875 -9 11 C-8.67 10.01 -8.34 9.02 -8 8 C-4.535 9.98 -4.535 9.98 -1 12 C-0.67 8.04 -0.34 4.08 0 0 Z M-5 12 C-5.33 12.66 -5.66 13.32 -6 14 C-5.34 14.66 -4.68 15.32 -4 16 C-3.67 14.68 -3.34 13.36 -3 12 C-3.66 12 -4.32 12 -5 12 Z " fill="#293443" transform="translate(25,19)"/>
<path d="M0 0 C2.0625 0.75 2.0625 0.75 4 2 C5.11242674 5.33728023 5.00671255 7.5087093 4.75 11 C4.68296875 12.051875 4.6159375 13.10375 4.546875 14.1875 C3.96308545 17.18984626 3.37570711 18.16074288 1 20 C0.01 19.67 -0.98 19.34 -2 19 C-2 13.06 -2 7.12 -2 1 C-1.34 0.67 -0.68 0.34 0 0 Z " fill="#333E51" transform="translate(60,21)"/>
<path d="M0 0 C0.33 0.66 0.66 1.32 1 2 C2.32 2 3.64 2 5 2 C5.02698189 3.62490954 5.04638757 5.24994633 5.0625 6.875 C5.07410156 7.77992187 5.08570313 8.68484375 5.09765625 9.6171875 C5 12 5 12 4 14 C1.0280615 12.87548273 -1.33440687 11.77706209 -4 10 C-3.71872579 8.51882199 -3.42466268 7.04006751 -3.125 5.5625 C-2.96257813 4.73878906 -2.80015625 3.91507813 -2.6328125 3.06640625 C-2.42398437 2.38449219 -2.21515625 1.70257812 -2 1 C-1.34 0.67 -0.68 0.34 0 0 Z M0 14 C0.66 14 1.32 14 2 14 C1.67 15.32 1.34 16.64 1 18 C0.34 17.01 -0.32 16.02 -1 15 C-0.67 14.67 -0.34 14.34 0 14 Z " fill="#333F52" transform="translate(20,17)"/>
<path d="M0 0 C0 0.33 0 0.66 0 1 C-1.134375 1.12375 -2.26875 1.2475 -3.4375 1.375 C-5.2009375 1.684375 -5.2009375 1.684375 -7 2 C-7.33 2.66 -7.66 3.32 -8 4 C-8.66 3.67 -9.32 3.34 -10 3 C-10.33 4.32 -10.66 5.64 -11 7 C-9.35 7 -7.7 7 -6 7 C-7.32 8.65 -8.64 10.3 -10 12 C-10 11.01 -10 10.02 -10 9 C-10.763125 9.495 -11.52625 9.99 -12.3125 10.5 C-15 12 -15 12 -18 12 C-18.33 12.99 -18.66 13.98 -19 15 C-18.61970897 9.39070732 -18.26387681 6.02699476 -14 2 C-9.60766715 -0.63539971 -4.95972067 -0.19449885 0 0 Z " fill="#263040" transform="translate(110,18)"/>
<path d="M0 0 C4.23315493 1.56783516 6.42641166 4.38306504 9 8 C9.8125 11.375 9.8125 11.375 10 14 C9.34 13.67 8.68 13.34 8 13 C8 12.34 8 11.68 8 11 C6.68 10.67 5.36 10.34 4 10 C3.67 10.99 3.34 11.98 3 13 C2.01 13.33 1.02 13.66 0 14 C-2.875 9.25 -2.875 9.25 -4 7 C-2.02 6.67 -0.04 6.34 2 6 C1.34 4.02 0.68 2.04 0 0 Z " fill="#283242" transform="translate(43,6)"/>
<path d="M0 0 C2.4375 0.8125 2.4375 0.8125 4.4375 3.8125 C3.89695946 8.35304054 3.89695946 8.35304054 2.4375 9.8125 C-0.5 10 -0.5 10 -3.5625 9.8125 C-5.5625 7.8125 -5.5625 7.8125 -5.875 4.8125 C-5.771875 3.8225 -5.66875 2.8325 -5.5625 1.8125 C-2.5625 -0.1875 -2.5625 -0.1875 0 0 Z " fill="#2F3949" transform="translate(84.5625,4.1875)"/>
<path d="M0 0 C0 0.99 0 1.98 0 3 C-2.31 3.33 -4.62 3.66 -7 4 C-7 9.94 -7 15.88 -7 22 C-4.69 22 -2.38 22 0 22 C0 22.66 0 23.32 0 24 C-2.64 24 -5.28 24 -8 24 C-8 16.41 -8 8.82 -8 1 C-2 0 -2 0 0 0 Z " fill="#151C29" transform="translate(65,18)"/>
<path d="M0 0 C0.66 0.66 1.32 1.32 2 2 C1.01 3.98 0.02 5.96 -1 8 C-3.64 8 -6.28 8 -9 8 C-9 7.67 -9 7.34 -9 7 C-7.02 6.67 -5.04 6.34 -3 6 C-3.33 5.01 -3.66 4.02 -4 3 C-4.61875 3.350625 -5.2375 3.70125 -5.875 4.0625 C-6.57625 4.371875 -7.2775 4.68125 -8 5 C-8.66 4.67 -9.32 4.34 -10 4 C-9.67 3.01 -9.34 2.02 -9 1 C-5.98675805 -0.50662097 -3.31713623 -0.17770373 0 0 Z " fill="#0D1426" transform="translate(76,18)"/>
<path d="M0 0 C2.31 0 4.62 0 7 0 C7 0.99 7 1.98 7 3 C6.34 3.66 5.68 4.32 5 5 C5 5.33 5 5.66 5 6 C0.545 6.495 0.545 6.495 -4 7 C-4 6.01 -4 5.02 -4 4 C-3.34 4 -2.68 4 -2 4 C-2 3.34 -2 2.68 -2 2 C-1.34 1.67 -0.68 1.34 0 1 C0 0.67 0 0.34 0 0 Z " fill="#344054" transform="translate(102,19)"/>
<path d="M0 0 C2.625 1.3125 2.625 1.3125 5 3 C5 3.66 5 4.32 5 5 C4.01 5.33 3.02 5.66 2 6 C1.67 6.66 1.34 7.32 1 8 C0.34 8 -0.32 8 -1 8 C-1.33 9.65 -1.66 11.3 -2 13 C-2.33 13 -2.66 13 -3 13 C-3.20140476 9.37471432 -2.85776765 7.13498292 -1 4 C-0.34 4 0.32 4 1 4 C1 3.34 1 2.68 1 2 C0.01 1.67 -0.98 1.34 -2 1 C-1.34 0.67 -0.68 0.34 0 0 Z " fill="#2A3445" transform="translate(113,20)"/>
<path d="M0 0 C0.66 0.66 1.32 1.32 2 2 C-1.28804981 4.91227269 -3.59885603 6.49701212 -8 7 C-8 5 -8 5 -6.25 2.9375 C-4.03210237 1.02764371 -2.8966677 0.19311118 0 0 Z " fill="#2B3341" transform="translate(47,35)"/>
<path d="M0 0 C0.33 1.32 0.66 2.64 1 4 C-1.93720508 5.52299523 -4.9168649 6.80100302 -8 8 C-8 6.68 -8 5.36 -8 4 C-6.02 4 -4.04 4 -2 4 C-1.34 2.68 -0.68 1.36 0 0 Z " fill="#364052" transform="translate(52,24)"/>
<path d="M0 0 C2.1875 0.3125 2.1875 0.3125 4 1 C3.67 2.32 3.34 3.64 3 5 C1.35 5.33 -0.3 5.66 -2 6 C-2.33 5.01 -2.66 4.02 -3 3 C-1.75 1.4375 -1.75 1.4375 0 0 Z " fill="#354052" transform="translate(47,16)"/>
<path d="M0 0 C1.98 0.495 1.98 0.495 4 1 C4 2.32 4 3.64 4 5 C2.35 4.01 0.7 3.02 -1 2 C-0.67 1.34 -0.34 0.68 0 0 Z " fill="#354154" transform="translate(38,34)"/>
<path d="M0 0 C0 0.99 0 1.98 0 3 C-2.64 3 -5.28 3 -8 3 C-8 2.34 -8 1.68 -8 1 C-2.25 0 -2.25 0 0 0 Z " fill="#070D1C" transform="translate(65,18)"/>
<path d="M0 0 C-0.66 1.32 -1.32 2.64 -2 4 C-2.99 3.67 -3.98 3.34 -5 3 C-5 4.65 -5 6.3 -5 8 C-5.33 8 -5.66 8 -6 8 C-6.1875 5.125 -6.1875 5.125 -6 2 C-3 0 -3 0 0 0 Z " fill="#2A313B" transform="translate(85,4)"/>
<path d="M0 0 C0 0.33 0 0.66 0 1 C-7.42857143 3.14285714 -7.42857143 3.14285714 -11 4 C-11 3.34 -11 2.68 -11 2 C-7.36576791 -0.32590854 -4.22911669 -0.16265833 0 0 Z " fill="#141C2C" transform="translate(142,18)"/>
</svg>
