<?xml version="1.0" encoding="UTF-8"?>
<svg version="1.1" xmlns="http://www.w3.org/2000/svg" width="500" height="500">
<path d="M0 0 C0.93392578 0.80244141 0.93392578 0.80244141 1.88671875 1.62109375 C2.51964844 2.14574219 3.15257812 2.67039063 3.8046875 3.2109375 C14.15263047 12.58807133 17.28396305 27.00671284 18.046875 40.44140625 C18.48962478 56.11089829 15.53717732 72.78635473 4.51171875 84.68359375 C-7.47016644 95.30146968 -22.63374177 97.5042625 -38.11328125 96.62109375 C-46.60137528 95.48397567 -54.05409029 93.56252743 -61.11328125 88.62109375 C-61.7371875 88.19054687 -62.36109375 87.76 -63.00390625 87.31640625 C-72.33674365 80.13417921 -77.13878656 67.94710064 -79.11328125 56.62109375 C-80.34550087 38.35025112 -80.09531878 20.50042724 -68.11328125 5.62109375 C-52.41983731 -11.86778657 -18.66776192 -14.25861434 0 0 Z M-48.9609375 17.53515625 C-56.89309538 28.25428852 -57.45727176 42.14596066 -55.64453125 54.92578125 C-54.07750894 62.25720703 -51.3898813 69.28867812 -45.30859375 74.02734375 C-38.72554901 77.98282128 -31.40142641 78.73737484 -23.9296875 77.16015625 C-18.01280432 75.19939574 -12.9962319 71.85634531 -9.82421875 66.40625 C-6.43082765 59.07017787 -5.90835729 52.42895661 -5.86328125 44.43359375 C-5.84265625 43.53833984 -5.82203125 42.64308594 -5.80078125 41.72070312 C-5.74963873 32.86665381 -7.41214425 24.62534778 -13.11328125 17.62109375 C-18.72717497 12.25128237 -23.21153952 10.55541752 -30.86328125 10.18359375 C-38.11060837 10.34544473 -43.85510854 12.2458197 -48.9609375 17.53515625 Z " fill="#333D4F" transform="translate(137.11328125,206.37890625)"/>
<path d="M0 0 C7.35142687 5.98273511 11.0235319 13.4462896 13.03515625 22.65625 C14.16062957 36.59038589 14.04537475 50.65269448 4.73046875 61.91015625 C-3.22907797 70.10812257 -12.58174873 73.69840149 -23.96484375 73.96875 C-35.13550457 73.84238506 -45.05103327 70.74592293 -52.96484375 62.65625 C-60.29107492 53.99358546 -62.51877382 44.37822797 -62.33984375 33.21875 C-62.32969238 32.29932617 -62.31954102 31.37990234 -62.30908203 30.43261719 C-62.06712147 19.84262246 -60.20865755 10.75587303 -52.96484375 2.65625 C-38.38756056 -10.48887905 -15.87239262 -11.42140422 0 0 Z M-34.96484375 13.65625 C-40.78185348 22.43769738 -41.09295674 32.39999782 -39.50390625 42.62109375 C-38.0030842 48.49195647 -36.01892117 51.32270957 -30.96484375 54.65625 C-27.49340811 56.39196782 -23.76040557 56.12270793 -19.96484375 55.65625 C-15.39911482 53.288835 -12.02503379 50.78347723 -10.34375 45.82421875 C-7.84054404 36.24298215 -7.74891804 25.75465095 -11.96484375 16.65625 C-14.59613375 13.43291975 -16.03499767 11.96619869 -19.96484375 10.65625 C-25.56635121 10.10143402 -30.30784513 10.19057661 -34.96484375 13.65625 Z " fill="#333D4F" transform="translate(337.96484375,229.34375)"/>
<path d="M0 0 C6.11642453 4.87069403 8.38931198 10.5006557 10 18 C10.38057471 22.48846351 10.35129116 26.94342958 10.29296875 31.4453125 C10.28872391 32.69633759 10.28447906 33.94736267 10.28010559 35.23629761 C10.26625204 38.52762875 10.23940206 41.81850082 10.20599365 45.10968018 C10.1750482 48.48191778 10.16154853 51.85422318 10.14648438 55.2265625 C10.11355528 61.81790771 10.06184541 68.40886525 10 75 C2.74 75 -4.52 75 -12 75 C-12.03738281 71.4834375 -12.07476562 67.966875 -12.11328125 64.34375 C-12.15955009 60.92148778 -12.21076439 57.49933261 -12.26245117 54.07714844 C-12.29561573 51.70677242 -12.32367378 49.33631905 -12.34643555 46.96582031 C-12.38013688 43.54979624 -12.43246209 40.1344757 -12.48828125 36.71875 C-12.49467117 35.66635132 -12.5010611 34.61395264 -12.50764465 33.52966309 C-12.62991422 27.34993352 -13.34819481 22.61316438 -16 17 C-19.76192081 14.08431905 -24.44649883 14.47052312 -29 15 C-32.7237719 16.61903126 -34.95629465 18.49650512 -37 22 C-39.11507977 27.94578943 -39.33932104 33.46934249 -39.4140625 39.74609375 C-39.43342865 40.75720718 -39.4527948 41.76832062 -39.4727478 42.81007385 C-39.5322199 46.01913182 -39.57879916 49.22822628 -39.625 52.4375 C-39.66320957 54.62175988 -39.70226302 56.80600517 -39.7421875 58.99023438 C-39.83947291 64.32674424 -39.91929893 69.66311081 -40 75 C-47.26 75 -54.52 75 -62 75 C-62 49.26 -62 23.52 -62 -3 C-56.39 -3 -50.78 -3 -45 -3 C-43 3 -43 3 -43 7 C-42.34 7 -41.68 7 -41 7 C-40.814375 6.443125 -40.62875 5.88625 -40.4375 5.3125 C-37.73183135 0.95990261 -33.56966323 -1.32728719 -28.9375 -3.3125 C-19.01703937 -5.04464392 -8.9348377 -5.12630883 0 0 Z " fill="#333E50" transform="translate(430,226)"/>
<path d="M0 0 C1.15242188 0.01804688 2.30484375 0.03609375 3.4921875 0.0546875 C4.36101562 0.07789063 5.22984375 0.10109375 6.125 0.125 C6.26294954 7.19108191 5.87305717 14.09860585 5.125 21.125 C4.2071875 21.15078125 3.289375 21.1765625 2.34375 21.203125 C-7.93525714 21.55788596 -7.93525714 21.55788596 -16.875 26.125 C-20.32721311 30.46239596 -21.96980336 33.99448183 -22.08032227 39.50463867 C-22.10026749 40.38532516 -22.12021271 41.26601166 -22.14076233 42.17338562 C-22.16583107 43.59382927 -22.16583107 43.59382927 -22.19140625 45.04296875 C-22.21218735 46.01534988 -22.23296844 46.98773102 -22.25437927 47.98957825 C-22.31978748 51.09714665 -22.37871929 54.20479985 -22.4375 57.3125 C-22.48069351 59.41862858 -22.52430807 61.52474856 -22.56835938 63.63085938 C-22.67625267 68.79548724 -22.77539123 73.96017907 -22.875 79.125 C-30.135 79.125 -37.395 79.125 -44.875 79.125 C-44.875 53.385 -44.875 27.645 -44.875 1.125 C-39.265 1.125 -33.655 1.125 -27.875 1.125 C-26.885 4.755 -25.895 8.385 -24.875 12.125 C-23.823125 11.2175 -22.77125 10.31 -21.6875 9.375 C-21.04554688 8.8284375 -20.40359375 8.281875 -19.7421875 7.71875 C-18.25524527 6.44956082 -16.78152977 5.1648798 -15.3125 3.875 C-10.47944828 0.40511672 -5.84209397 -0.11922641 0 0 Z " fill="#333E4F" transform="translate(217.875,221.875)"/>
<path d="M0 0 C7.26 0 14.52 0 22 0 C22 25.74 22 51.48 22 78 C14.74 78 7.48 78 0 78 C0 52.26 0 26.52 0 0 Z " fill="#333E4F" transform="translate(237,223)"/>
<path d="M0 0 C2.82291685 1.88194457 3.75064936 2.51490264 4.625 5.75 C4.96453264 10.02811129 5.07008272 12.6724313 3.4375 16.625 C0.25228579 20.35938907 -2.50029814 20.68057922 -7.3125 21.0625 C-11.28254359 20.94242307 -14.05969667 20.03913802 -17.375 17.75 C-19.93345178 13.96794085 -19.53072521 10.19602203 -18.921875 5.83984375 C-18.14743666 2.88038296 -16.8478321 1.49552854 -14.375 -0.25 C-9.26802969 -1.95232344 -4.97124372 -1.84120138 0 0 Z " fill="#323D4D" transform="translate(255.375,194.25)"/>
<path d="M0 0 C4.29 0 8.58 0 13 0 C13 0.33 13 0.66 13 1 C9.04 1 5.08 1 1 1 C1.33 25.75 1.66 50.5 2 76 C8.27 76.33 14.54 76.66 21 77 C20.88140625 73.87015625 20.7628125 70.7403125 20.640625 67.515625 C20.53982511 64.48417886 20.4460849 61.45259095 20.35302734 58.42089844 C20.28456692 56.31387466 20.20876812 54.20707602 20.12548828 52.10058594 C20.00704987 49.07255822 19.91502551 46.04470153 19.828125 43.015625 C19.78560608 42.07382385 19.74308716 41.13202271 19.69927979 40.16168213 C19.5476354 33.5907763 19.5476354 33.5907763 22.01074219 30.37402344 C22.66719727 29.9205957 23.32365234 29.46716797 24 29 C23.84152588 29.61641357 23.68305176 30.23282715 23.51977539 30.86791992 C22.78762329 35.27974675 22.76327381 39.64766856 22.68359375 44.11328125 C22.66281265 45.08283249 22.64203156 46.05238373 22.62062073 47.05131531 C22.55541059 50.13830707 22.4963732 53.22538152 22.4375 56.3125 C22.39428763 58.40951364 22.35067248 60.50651903 22.30664062 62.60351562 C22.19900306 67.7355937 22.09971738 72.8677375 22 78 C14.74 78 7.48 78 0 78 C0 52.26 0 26.52 0 0 Z " fill="#2A313E" transform="translate(173,223)"/>
<path d="M0 0 C5.18548034 4.20444352 6.69669789 8.52404378 8 15 C8.37380296 19.48908887 8.3512931 23.94327929 8.29296875 28.4453125 C8.28872391 29.69633759 8.28447906 30.94736267 8.28010559 32.23629761 C8.26625204 35.52762875 8.23940206 38.81850082 8.20599365 42.10968018 C8.1750482 45.48191778 8.16154853 48.85422318 8.14648438 52.2265625 C8.11355528 58.81790771 8.06184541 65.40886525 8 72 C0.74 72 -6.52 72 -14 72 C-14 55.5 -14 39 -14 22 C-13.67 22 -13.34 22 -13 22 C-13 38.17 -13 54.34 -13 71 C-10.525 70.505 -10.525 70.505 -8 70 C-6.33516024 69.91155539 -4.66717928 69.86979006 -3 69.875 C-2.175 69.87242187 -1.35 69.86984375 -0.5 69.8671875 C2.08490572 70.00451062 4.47021418 70.46927202 7 71 C6.90719477 63.63487089 6.79982346 56.27005432 6.68261719 48.90527344 C6.64447934 46.40304301 6.60960076 43.9007606 6.578125 41.3984375 C6.5321433 37.78887427 6.47420429 34.17966429 6.4140625 30.5703125 C6.40251129 29.46261505 6.39096008 28.3549176 6.37905884 27.21365356 C6.20292547 17.81430936 5.74674174 9.66232232 0 2 C0 1.34 0 0.68 0 0 Z " fill="#2A303E" transform="translate(432,229)"/>
<path d="M0 0 C0.66 0 1.32 0 2 0 C1.67 1.19625 1.34 2.3925 1 3.625 C-1.09179736 13.18105268 -1.34135788 24.02899095 3 33 C4.54280898 35.02493679 6.00582261 36.38309942 8 38 C6.35 38 4.7 38 3 38 C2.67 37.34 2.34 36.68 2 36 C0.02 36.495 0.02 36.495 -2 37 C-1.814375 36.071875 -1.62875 35.14375 -1.4375 34.1875 C-0.75876119 30.98656229 -0.75876119 30.98656229 -2 28 C-2.22979799 24.58740326 -2.18516744 21.16953652 -2.1875 17.75 C-2.19974609 16.82058594 -2.21199219 15.89117187 -2.22460938 14.93359375 C-2.23602996 9.55069067 -1.77813458 5.08841673 0 0 Z " fill="#2B3240" transform="translate(299,246)"/>
<path d="M0 0 C-3.41024674 1.13674891 -5.52066036 0.69586793 -9 0 C-16.72875152 -0.67796066 -23.50011757 0.66674505 -30 5 C-31.65549531 5.38499891 -33.3222433 5.72793135 -35 6 C-26.63936677 -3.9788203 -11.62806416 -4.42973873 0 0 Z " fill="#272E3D" transform="translate(426,224)"/>
<path d="M0 0 C6.93550272 1.03788333 12.60395147 5.02728224 17.0625 10.375 C17.701875 11.24125 18.34125 12.1075 19 13 C18.01 13.495 18.01 13.495 17 14 C16.46375 13.2575 15.9275 12.515 15.375 11.75 C11.88041213 7.70363509 8.25314897 5.08685841 3 4 C2.01 3.34 1.02 2.68 0 2 C0 1.34 0 0.68 0 0 Z " fill="#2B323F" transform="translate(326,224)"/>
<path d="M0 0 C0 3 0 3 -1.79296875 5.0078125 C-2.58316406 5.70648438 -3.37335938 6.40515625 -4.1875 7.125 C-4.96480469 7.82882812 -5.74210938 8.53265625 -6.54296875 9.2578125 C-9.12088674 11.0857162 -10.89264137 11.63572705 -14 12 C-14 11.01 -14 10.02 -14 9 C-13.195625 8.87625 -12.39125 8.7525 -11.5625 8.625 C-10.716875 8.41875 -9.87125 8.2125 -9 8 C-8.67 7.34 -8.34 6.68 -8 6 C-7.34 6 -6.68 6 -6 6 C-4.42888683 4.67228234 -4.42888683 4.67228234 -2.875 3 C-2.33617187 2.443125 -1.79734375 1.88625 -1.2421875 1.3125 C-0.83226562 0.879375 -0.42234375 0.44625 0 0 Z " fill="#2E3743" transform="translate(144,285)"/>
<path d="M0 0 C2.475 0.495 2.475 0.495 5 1 C5 1.66 5 2.32 5 3 C6.98 2.67 8.96 2.34 11 2 C11.99 3.485 11.99 3.485 13 5 C13.99 5.66 14.98 6.32 16 7 C10.36382567 6.53031881 5.78582459 5.09327687 1 2 C0.67 1.34 0.34 0.68 0 0 Z " fill="#2C3340" transform="translate(290,295)"/>
<path d="M0 0 C0.33 0.66 0.66 1.32 1 2 C1.99 1.67 2.98 1.34 4 1 C4.33 1.99 4.66 2.98 5 4 C2.35559361 4.8814688 0.71939248 5.16174818 -2 5.1875 C-2.680625 5.20167969 -3.36125 5.21585938 -4.0625 5.23046875 C-6 5 -6 5 -9 3 C-6.23735711 2.40267181 -3.83967231 2 -1 2 C-0.67 1.34 -0.34 0.68 0 0 Z " fill="#2D3641" transform="translate(250,210)"/>
<path d="M0 0 C2 3 2 3 2 7 C2.66 7 3.32 7 4 7 C4.33 6.01 4.66 5.02 5 4 C6 6 6 6 5.75 8.0625 C5.5025 8.701875 5.255 9.34125 5 10 C4.01 10.33 3.02 10.66 2 11 C-0.32590854 7.36576791 -0.16265833 4.22911669 0 0 Z " fill="#2D3644" transform="translate(385,226)"/>
<path d="M0 0 C4.3177458 0.50797009 8.03302114 1.19682779 12 3 C11.01 4.485 11.01 4.485 10 6 C9.01 5.67 8.02 5.34 7 5 C6.67 4.01 6.34 3.02 6 2 C4.68 2.33 3.36 2.66 2 3 C1.34 2.01 0.68 1.02 0 0 Z " fill="#2A3344" transform="translate(120,200)"/>
<path d="M0 0 C0.2475 0.515625 0.495 1.03125 0.75 1.5625 C1.47784518 2.9817981 2.23437502 4.38831876 3.05859375 5.75390625 C4.09427299 7.47048188 5.05147096 9.23377351 6 11 C5.67 11.66 5.34 12.32 5 13 C2.525 12.01 2.525 12.01 0 11 C0.66 10.67 1.32 10.34 2 10 C2 9.01 2 8.02 2 7 C1.34 7 0.68 7 0 7 C-1.04449911 3.86650268 -0.93423645 3.01031744 0 0 Z " fill="#272F3A" transform="translate(82,264)"/>
<path d="M0 0 C0.66 0.99 1.32 1.98 2 3 C1.53980469 3.39832031 1.07960938 3.79664063 0.60546875 4.20703125 C-1.2674322 6.29866516 -1.87389302 8.01421992 -2.6875 10.6875 C-2.93886719 11.49574219 -3.19023438 12.30398437 -3.44921875 13.13671875 C-3.63097656 13.75160156 -3.81273437 14.36648437 -4 15 C-5.3480932 11.339671 -4.6336844 9.33449773 -3.125 5.8125 C-2.75632813 4.93207031 -2.38765625 4.05164063 -2.0078125 3.14453125 C-1 1 -1 1 0 0 Z " fill="#2C333E" transform="translate(65,218)"/>
<path d="M0 0 C1.32 0.33 2.64 0.66 4 1 C4 1.99 4 2.98 4 4 C3.34 4 2.68 4 2 4 C2.33 4.66 2.66 5.32 3 6 C3.04022391 8.3329866 3.04320247 10.66706666 3 13 C2.67 13 2.34 13 2 13 C1.34 8.71 0.68 4.42 0 0 Z " fill="#2D3341" transform="translate(129,232)"/>
<path d="M0 0 C2.69282475 4.03923713 3.13300939 6.95536152 3.0625 11.75 C3.05347656 12.54921875 3.04445313 13.3484375 3.03515625 14.171875 C3.01775391 15.07679688 3.01775391 15.07679688 3 16 C1.06622327 13.09933491 0.72492386 12.20923972 0.4375 8.9375 C0.25413459 5.22018139 0.25413459 5.22018139 -1 3 C-0.67 2.01 -0.34 1.02 0 0 Z " fill="#2D3341" transform="translate(348,245)"/>
<path d="M0 0 C4.875 2.625 4.875 2.625 6 6 C6.12781786 8.67394964 6.04391871 11.32095857 6 14 C5.67 14 5.34 14 5 14 C4.97421875 13.30132812 4.9484375 12.60265625 4.921875 11.8828125 C4.86515625 10.97273437 4.8084375 10.06265625 4.75 9.125 C4.70359375 8.22007812 4.6571875 7.31515625 4.609375 6.3828125 C4.24388852 3.82889456 4.24388852 3.82889456 1.953125 2.6796875 C1.30859375 2.45539063 0.6640625 2.23109375 0 2 C0 1.34 0 0.68 0 0 Z " fill="#2A303A" transform="translate(254,194)"/>
<path d="M0 0 C0 3 0 3 -2.375 5.6875 C-5 8 -5 8 -7 8 C-7 7.34 -7 6.68 -7 6 C-6.34 6 -5.68 6 -5 6 C-4.67 5.01 -4.34 4.02 -4 3 C-1.9375 1.3125 -1.9375 1.3125 0 0 Z " fill="#2A323B" transform="translate(343,288)"/>
<path d="M0 0 C1.52519276 0.08937803 3.04681929 0.24537146 4.5625 0.4375 C5.80193359 0.59025391 5.80193359 0.59025391 7.06640625 0.74609375 C7.70449219 0.82988281 8.34257813 0.91367187 9 1 C9 1.33 9 1.66 9 2 C7.329375 2.2165625 7.329375 2.2165625 5.625 2.4375 C2.17857953 2.78372035 2.17857953 2.78372035 0 4 C-0.33 3.01 -0.66 2.02 -1 1 C-0.67 0.67 -0.34 0.34 0 0 Z " fill="#303744" transform="translate(97,283)"/>
<path d="M0 0 C1.32 0 2.64 0 4 0 C4.33 2.31 4.66 4.62 5 7 C4.34 6.01 3.68 5.02 3 4 C2.01 3.67 1.02 3.34 0 3 C0 2.01 0 1.02 0 0 Z " fill="#303744" transform="translate(186,223)"/>
</svg>
