<!DOCTYPE svg PUBLIC "-//W3C//DTD SVG 1.1//EN" "http://www.w3.org/Graphics/SVG/1.1/DTD/svg11.dtd">
<!-- Uploaded to: SVG Repo, www.svgrepo.com, Transformed by: SVG Repo Mixer Tools -->
<svg width="800px" height="800px" viewBox="0 0 20 20" version="1.1" xmlns="http://www.w3.org/2000/svg" xmlns:xlink="http://www.w3.org/1999/xlink" fill="#000000">
<g id="SVGRepo_bgCarrier" stroke-width="0"/>
<g id="SVGRepo_tracerCarrier" stroke-linecap="round" stroke-linejoin="round"/>
<g id="SVGRepo_iconCarrier" _msttexthash="828100" _msthash="874" _mstTextHash="828100" _mstHash="1120">  <title _istranslated="1" _isTranslated="1">arrow_all [#376]</title> <desc _istranslated="1" _isTranslated="1">Criado com Sketch.</desc>  <defs _istranslated="1" _isTranslated="1">  </defs>  <g id="Page-1" stroke="none" stroke-width="1" fill="none" fill-rule="evenodd" _istranslated="1" _isTranslated="1">  <g id="Dribbble-Light-Preview" transform="translate(-300.000000, -6519.000000)" fill="#3e76dc" _istranslated="1" _isTranslated="1">  <g id="icons" transform="translate(56.000000, 160.000000)" _istranslated="1" _isTranslated="1">  <path d="M250.586,6371 L246,6375.586 L246,6371 L244,6371 L244,6379 L252,6379 L252,6377 L247.414,6377 L252,6372.414 L250.586,6371 Z M256,6359 L256,6361 L260.586,6361 L256,6365.586 L257.414,6367 L262,6362.414 L262,6367 L264,6367 L264,6359 L256,6359 Z M262,6375.586 L257.414,6371 L256,6372.414 L260.586,6377 L256,6377 L256,6379 L264,6379 L264,6371 L262,6371 L262,6375.586 Z M244,6359 L244,6367 L246,6367 L246,6362.414 L250.549,6366.963 L251.963,6365.549 L247.414,6361 L252,6361 L252,6359 L244,6359 Z" id="arrow_all-[#376]" _istranslated="1" _isTranslated="1">  </path>  </g>  </g>  </g>  </g>
</svg>